HIERARCHY
ROOT Hips
{
	OFFSET 0.000000 0.000000 0.000000 
	CHANNELS 6 Xposition Yposition Zposition Yrotation Zrotation Xrotation 
	JOINT Lumbar
	{
		OFFSET 0.000000 0.000000 0.000000 
		CHANNELS 3 Zrotation Xrotation Yrotation
		JOINT Neck
		{
			OFFSET 0.000000 0.445665 0.000000 
			CHANNELS 3 Zrotation Xrotation Yrotation
			End Site
			{
				OFFSET 0.000000 0.227535 0.000000 
			}
		}
		JOINT RightShoulder
		{
			OFFSET 0.019635 0.377685 0.194865 
			CHANNELS 3 Zrotation Xrotation Yrotation
			JOINT RightElbow
			{
				OFFSET 0.000000 -0.243375 0.000000 
				CHANNELS 2 Zrotation Yrotation
				JOINT RightWrist
				{
					OFFSET 0.000000 -0.264825 0.000000 
					CHANNELS 2 Zrotation Xrotation
					End Site
					{
						OFFSET 0.006600 -0.176220 0.000990 
					}
				}
			}
		}
		JOINT LeftShoulder
		{
			OFFSET 0.019635 0.377685 -0.194865 
			CHANNELS 3 Zrotation Xrotation Yrotation
			JOINT LeftElbow
			{
				OFFSET 0.000000 -0.243375 0.000000 
				CHANNELS 2 Zrotation Yrotation
				JOINT LeftWrist
				{
					OFFSET 0.000000 -0.264825 0.000000 
					CHANNELS 2 Zrotation Xrotation
					End Site
					{
						OFFSET 0.006600 -0.176220 -0.000990 
					}
				}
			}
		}
	}
	JOINT RightHip
	{
		OFFSET 0.052140 -0.069960 0.075570 
		CHANNELS 3 Zrotation Xrotation Yrotation
		JOINT RightKnee
		{
			OFFSET 0.000000 -0.402270 0.000000 
			CHANNELS 1 Zrotation
			JOINT RightAnkle
			{
				OFFSET 0.000000 -0.404085 0.000000 
				CHANNELS 3 Zrotation Xrotation Yrotation
				End Site
				{
					OFFSET 0.204105 -0.089430 0.008415 
				}
			}
		}
	}
	JOINT LeftHip
	{
		OFFSET 0.052140 -0.069960 -0.075570 
		CHANNELS 3 Zrotation Xrotation Yrotation
		JOINT LeftKnee
		{
			OFFSET 0.000000 -0.402270 0.000000 
			CHANNELS 1 Zrotation
			JOINT LeftAnkle
			{
				OFFSET 0.000000 -0.404085 0.000000 
				CHANNELS 3 Zrotation Xrotation Yrotation
				End Site
				{
					OFFSET 0.204105 -0.089430 -0.008415 
				}
			}
		}
	}
}
MOTION
Frames: 17
Frame Time: 0.02
0 0.95578 0 179.63771 0 -2.50577 3.11361 2.46231 -2.1304 -20.02138 2.32791 -0.37023 -38.10292 -71.44454 -86.04514 20.57436 52.2156 -34.78845 0.96205 -27.63093 73.46268 85.5403 16.90233 -72.74315 -30.25663 2.32173 -3.17309 5.86426 -0.22373 -11.40007 3.14487 -4.54378 -10.17135 -2.29595 3.3696 1.28365 -7.73086 5.73159 5.02454 9.02246
-0.00088 0.95563 -0.00139 179.69795 0 -2.48205 3.19671 2.41623 -2.20683 -20.10064 2.3218 -0.3158 -38.03712 -71.44386 -86.04527 20.57706 52.06001 -34.77034 0.89326 -27.92699 73.48776 84.63103 16.90706 -72.41734 -30.58637 2.1829 -3.24178 5.92306 -0.29275 -11.38465 3.19254 -4.55603 -10.15565 -2.30449 3.43154 1.29306 -7.79852 5.77946 5.01594 8.97447
-0.00176 0.95548 -0.00278 179.75801 0 -2.45835 3.27943 2.37027 -2.28297 -20.17927 2.31601 -0.26146 -37.97238 -71.44366 -86.04538 20.57926 51.90637 -34.75256 0.82535 -28.21765 73.51217 83.7287 16.91209 -72.09574 -30.91301 2.04538 -3.3097 5.98183 -0.3613 -11.37007 3.23997 -4.56824 -10.14022 -2.31215 3.49342 1.30225 -7.86732 5.82716 5.00758 8.92683
-0.00264 0.95533 -0.00418 179.81772 0 -2.43471 3.36187 2.32454 -2.35869 -20.25664 2.31129 -0.20724 -37.90976 -71.44504 -86.04543 20.58018 51.76037 -34.73524 0.76041 -28.49218 73.5338 82.84596 16.91847 -71.78751 -31.23003 1.91179 -3.37585 6.04078 -0.42865 -11.35786 3.28688 -4.58041 -10.12547 -2.31758 3.55534 1.30989 -7.93976 5.87457 5.00032 8.88084
-0.00355 0.95517 -0.00556 179.87903 0 -2.41097 3.44628 2.27785 -2.43663 -20.34128 2.3007 -0.15272 -37.83415 -71.43763 -86.0458 20.58868 51.57551 -34.71468 0.67989 -28.85527 73.56975 81.86024 16.91779 -71.40807 -31.5975 1.75743 -3.45217 6.09844 -0.50237 -11.33211 3.33652 -4.5928 -10.10681 -2.33628 3.61666 1.3248 -7.99104 5.92345 4.98749 8.82695
-0.00438 0.95504 -0.00698 179.93706 0 -2.38731 3.5261 2.23305 -2.50978 -20.41005 2.30266 -0.09869 -37.7873 -71.44909 -86.04548 20.5806 51.47192 -34.70153 0.63229 -29.02858 73.57564 81.09277 16.93196 -71.1799 -31.85825 1.64716 -3.50634 6.15902 -0.56254 -11.33566 3.38035 -4.60474 -10.09666 -2.3259 3.67947 1.32498 -8.0883 5.96923 4.98627 8.78926
-0.00505 0.95496 -0.0085 179.98589 0 -2.36455 3.59792 2.19397 -2.57149 -20.43899 2.33976 -0.04627 -37.81129 -71.51254 -86.04346 20.52969 51.60755 -34.70436 0.67879 -28.68056 73.49349 80.93387 16.99 -71.3769 -31.8174 1.66019 -3.5035 6.2274 -0.58545 -11.41775 3.40863 -4.61537 -10.10856 -2.24053 3.74602 1.27738 -8.30878 6.00665 5.01993 8.80183
-0.00563 0.95491 -0.01007 180.03147 0 -2.34169 3.66427 2.15662 -2.62805 -20.4513 2.38948 0.00577 -37.86584 -71.59505 -86.04072 20.46157 51.82269 -34.71534 0.75802 -28.13987 73.38181 80.99419 17.06273 -71.72586 -31.66989 1.71754 -3.47756 6.29883 -0.59469 -11.52984 3.43098 -4.62555 -10.12926 -2.12483 3.81424 1.21609 -8.5764 6.04084 5.06484 8.82983
-0.00622 0.95485 -0.01163 180.07875 0 -2.31843 3.73022 2.11818 -2.68596 -20.46856 2.43317 0.05817 -37.91218 -71.6691 -86.03819 20.39924 51.99199 -34.72574 0.82021 -27.68531 73.28685 80.95003 17.12675 -72.00026 -31.57579 1.75359 -3.45944 6.36913 -0.61006 -11.63003 3.4558 -4.63602 -10.14695 -2.01936 3.88203 1.16569 -8.82547 6.07653 5.10287 8.84712
-0.00695 0.95479 -0.01315 180.12518 0 -2.29713 3.80851 2.08125 -2.74828 -20.49645 2.4781 0.10964 -37.93498 -71.74263 -86.03615 20.34508 52.20213 -34.72363 0.8914 -27.23757 73.17811 80.92582 17.19868 -72.29629 -31.46145 1.7943 -3.45253 6.4384 -0.62568 -11.72339 3.48162 -4.6462 -10.16072 -1.92855 3.94839 1.09588 -9.06328 6.11249 5.14843 8.87976
-0.00737 0.95473 -0.01477 180.17247 0 -2.27162 3.85959 2.04128 -2.79991 -20.4987 2.52346 0.16311 -38.01353 -71.82133 -86.03292 20.2703 52.34622 -34.74866 0.95179 -26.72891 73.09091 80.91288 17.25843 -72.58532 -31.36315 1.83611 -3.41691 6.51048 -0.63765 -11.83748 3.50386 -4.65678 -10.18442 -1.80044 4.01815 1.06287 -9.3346 6.14662 5.18088 8.88442
-0.00701 0.9547 -0.01664 180.22427 0 -2.23536 3.83845 1.99504 -2.82546 -20.43078 2.56656 0.22096 -38.24176 -71.91307 -86.02644 20.13886 52.28744 -34.85332 0.9732 -26.10667 73.07178 80.87062 17.27386 -72.80065 -31.34169 1.86784 -3.306 6.59002 -0.6417 -12.0076 3.51848 -4.66936 -10.23642 -1.57279 4.09688 1.13819 -9.69694 6.18054 5.17504 8.80511
-0.00634 0.95468 -0.01863 180.27683 0 -2.19471 3.78968 1.94519 -2.83999 -20.33846 2.60959 0.281 -38.52341 -72.00851 -86.01881 19.98823 52.15956 -34.98345 0.98293 -25.42811 73.07522 80.83335 17.27771 -73.00657 -31.33876 1.89954 -3.16698 6.67221 -0.64265 -12.19687 3.52952 -4.68221 -10.29772 -1.30927 4.17897 1.25045 -10.08958 6.21191 5.15546 8.69761
-0.00579 0.95465 -0.02057 180.32812 0 -2.1555 3.75269 1.89531 -2.85816 -20.25936 2.65303 0.34091 -38.7798 -72.10031 -86.01175 19.84871 52.06416 -35.09791 0.99868 -24.77071 73.06729 80.7983 17.29167 -73.2285 -31.3232 1.93281 -3.04237 6.75291 -0.64598 -12.37279 3.54169 -4.69438 -10.35252 -1.06493 4.25954 1.3435 -10.46172 6.24185 5.14176 8.605
-0.00531 0.95462 -0.02247 180.38305 0 -2.11862 3.71933 1.85253 -2.88201 -20.16998 2.69585 0.39737 -39.04566 -72.20192 -86.00442 19.69762 51.96741 -35.23117 1.01223 -24.12631 73.06252 80.75213 17.28621 -73.40758 -31.32198 1.96125 -2.91142 6.83492 -0.64526 -12.5675 3.55586 -4.7088 -10.41646 -0.80788 4.34019 1.44603 -10.86365 6.28286 5.13008 8.50436
-0.00462 0.95459 -0.0245 180.4308 0 -2.07584 3.67121 1.79412 -2.89136 -20.09732 2.73909 0.46126 -39.29875 -72.28264 -85.99744 19.56741 51.8555 -35.32969 1.02761 -23.44273 73.05757 80.72724 17.3176 -73.66998 -31.29628 1.99894 -2.78559 6.91479 -0.65174 -12.72957 3.56495 -4.7187 -10.46442 -0.56854 4.42141 1.5381 -11.21045 6.29995 5.11065 8.41328
-0.00351 0.95454 -0.02687 180.45713 0 -2.0178 3.5949 1.69298 -2.8646 -20.06939 2.78938 0.54766 -39.54683 -72.31397 -85.99114 19.4899 51.72425 -35.33837 1.04634 -22.67531 73.04078 80.76031 17.45915 -74.17947 -31.2016 2.06386 -2.69474 6.98779 -0.68527 -12.77749 3.56258 -4.71553 -10.4574 -0.39174 4.50365 1.58932 -11.39573 6.25428 5.07444 8.35787
